<svg xmlns="http://www.w3.org/2000/svg" fill="none" viewBox="0 0 52 28"><path fill="#fff" d="M18.95 8.18c-1 .06-2.01.13-2.01.13v9s.43-.05 1.1-.09c.3-.04.71-.04 1.12-.05.42-.02.84-.04 1.3-.06.43-.02.88-.03 1.29-.08.41.02.77-.03 1.12-.01.66-.02 1.11-.01 1.11-.01v-4.03s-.75-.01-1.51.06c-.75.02-1.54.02-1.54.02l.03-4.97s-1 .04-2.01.09Z"/><path fill="#fff" d="M23.48 12.02c.74-.02 1.51-.02 1.51-.02v5s1-.01 2.01 0l2.01.02V8.03s-.45-.01-1.1-.02C27.58 8 27.19 8 26.78 8h-1.29c-.44 0-.88 0-1.3.01-.41 0-.79.01-1.12.02-.67.01-1.1.03-1.1.03l-.01 4 1.52-.04ZM32.03 8.13c-1.02-.04-2.01-.07-2.01-.07l-.01 9s1.02.03 2.02.07c1.01.02 2.01.11 2.01.11v-9s-1-.06-2.01-.11ZM29.46 22.01c.35.03.56.05.56.05v3s1 .03 2.01.07c1.01.05 2.01.11 2.01.11v-7.02s-.28-.02-.74-.02c-.48-.06-1.13-.06-1.93-.09-.4-.02-.84-.04-1.31-.07l-2.98-.05c-.52.01-1.05 0-1.59 0-.54.01-1.08.01-1.6.01-.55-.01-1.06.02-1.55.04-.5.01-.98.04-1.44.03-.46.04-.9.03-1.3.08-.81.02-1.46.08-1.93.08-.47.04-.73.08-.73.08v3.98s.2 0 .54-.03c.38-.01.89-.05 1.5-.09.29 0 .61-.07.99-.04.34-.03.71-.04 1.1-.04.39-.02.78-.04 1.16-.08.42.03.83 0 1.25.01.38-.05.81-.03 1.21-.05.41.01.8 0 1.15 0 .42.02.79 0 1.13 0 .35 0 .7.02 1 .01.61.03 1.13.04 1.49.03ZM4.83 13.71c.53-.08.9-.15.9-.15-.09.48-.15 1.01-.26 1.55 0 0-.34.02-.89.14-.54.07-1.17.17-1.86.31a117.51 117.51 0 0 1-2.72.52v4.01s.25-.05.65-.12c.39-.08.91-.19 1.43-.28.52-.1 1.06-.19 1.45-.26.38-.07.66-.11.66-.11-.28.62-.56 1.17-.88 1.67-.32.48-.65.91-.99 1.27-.35.35-.71.65-1.16.87-.35.2-.76.37-1.16.46v4l1.5-.5 1.29-.57c.42-.24.81-.53 1.16-.83.38-.3.74-.61 1.07-.96.32-.34.62-.72.91-1.08.27-.38.51-.77.79-1.15.24-.4.46-.79.66-1.2.2-.4.39-.79.56-1.2.2-.47.38-.95.47-1.48 0 0 .66-.05 1.28-.13.63-.09 1.24-.13 1.24-.13v7.5s1-.11 2-.21c1-.1 2-.19 2-.19v-17s-1 .09-2 .19-2 .21-2 .21v5.5l-1.39.17c.11-.67.16-1.32.25-1.87.06-.61.11-1.13.13-1.6l.09-2.09s-.65.08-1.58.21c-.48.06-1.02.14-1.6.22-.59.09-1.22.19-1.84.29-.64.1-1.25.21-1.85.31-.58.1-1.13.2-1.6.29l-1.54.3v4s.34-.06.88-.18c.53-.1 1.26-.24 1.98-.37.71-.14 1.41-.27 1.97-.33ZM37.77 8.52c-1.04-.09-1.72-.14-1.72-.14v17s.68.05 1.72.14c.5.03 1.12.11 1.76.17.32.04.66.07 1 .09.34.06.67.06 1.03.14.34-.01.68.08 1.02.13l.032.004a8.3 8.3 0 0 0 .938.076c.67.14 1.24.17 1.78.3 1.03.15 1.71.26 1.71.26v-4s-.43-.08-1.09-.19c-.33-.06-.71-.09-1.12-.17-.4-.04-.85-.11-1.27-.16-.44-.08-.89-.11-1.29-.16-.42-.06-.8-.11-1.12-.15-.66-.06-1.1-.12-1.1-.12l.01-2.51s.5.08 1.25.16c.37.03.81.08 1.28.16.47.06.96.12 1.47.18.5.07.99.16 1.45.21.46.07.9.15 1.28.18.7.11 1.25.21 1.25.21v6.53s.99.17 1.98.35l1.98.38v-17l-1.98-.38c-1.01-.18-1.98-.35-1.98-.35v6.5s-.51-.1-1.24-.21c-.39-.07-.83-.14-1.29-.2-.48-.08-.96-.14-1.45-.21-.51-.09-1-.14-1.47-.2s-.91-.11-1.28-.15c-.75-.12-1.25-.14-1.25-.14v-2.51l3.44.35 3.52.58.02-3.98s-.68-.11-1.71-.26c-.52-.08-1.11-.16-1.76-.25-.32-.05-.65-.09-.99-.13-.34-.05-.68-.09-1.02-.13l-1.03-.12c-.34-.04-.68-.07-1-.11-.65-.06-1.26-.12-1.76-.17ZM8.575 2.605l2.13 1.065-2.13 1.065v-2.13Zm2.323 1.25V3.29h5v.565h-5ZM18.248 5V2.285h-1.075V1.5h3.135v.785h-1.07V5h-.99Zm3.239-2.145h1.625v.74h-1.625v-.74Zm.07 1.38h1.83V5h-2.81V1.5h2.745v.765h-1.765v1.97Zm1.86.765 1.544-3.5h.975l1.55 3.5h-1.03l-1.21-3.015h.39L24.426 5h-1.01Zm.844-.68.255-.73h1.71l.255.73h-2.22Zm3.406.68V1.5h.815l1.45 2.38h-.43l1.41-2.38h.815l.01 3.5h-.91l-.01-2.115h.155l-1.055 1.77h-.44l-1.085-1.77h.19V5h-.915Zm5.676-1.145V3.29h5v.565h-5Zm5.475-1.25 2.13 1.065-2.13 1.065v-2.13Z"/></svg>